# xmcd CD database file
#
# Track frame offsets:
#	150
#	17140
#	38453
#
# Disc length: 684 seconds
#
# Revision: 1
# Processed by: cddbd v1.5PL3 Copyright (c) Steve Scherf et al.
# Submitted via: CDex 1.50beta8
#
DISCID=1602aa03
DTITLE=LOVE PSYCHEDELICO - My last fight
DYEAR=2003
DGENRE=JPop
TTITLE0=My last fight
TTITLE1=fleeing star
TTITLE2=Dreamer
EXTD=YEAR: 2003
EXTT0=
EXTT1=
EXTT2=
PLAYORDER=
